<svg width="223" height="221" viewBox="0 0 223 221" fill="none" xmlns="http://www.w3.org/2000/svg">
<rect width="218" height="216.02" transform="translate(0 4.94971) rotate(-1.30095)" fill="#E5E5E5"/>
<path fill-rule="evenodd" clip-rule="evenodd" d="M22.8221 87.5723C19.0933 103.287 19.6402 119.722 24.4055 135.153L57.4062 124.856C54.4808 115.382 54.145 105.293 56.4342 95.6454C58.7234 85.9981 63.5531 77.1491 70.4164 70.027C77.2796 62.905 85.9234 57.7726 95.4404 55.1686C104.957 52.5646 114.997 52.585 124.504 55.2277L133.703 21.7353C118.215 17.4307 101.862 17.3974 86.3599 21.6391C74.8856 24.7787 64.1905 30.1745 54.874 37.4709C52.562 31.2595 46.5109 26.8996 39.5119 27.0585C30.6776 27.2591 23.6787 34.5834 23.8793 43.4177C24.0424 50.5991 28.9128 56.5676 35.4751 58.4419C29.5953 67.2843 25.2972 77.1419 22.8221 87.5723Z" fill="#6F35A5" fill-opacity="0.9"/>
<path d="M36.007 90.6544L5.86711 84.8372C5.86711 84.8372 1.75779 105.885 2.65143 119.419C3.30287 129.285 3.9892 134.977 7.218 144.322C10.4974 153.814 19.2372 167.055 19.2372 167.055L20.134 206.545L60.1237 205.637C60.1237 205.637 72.8741 213.071 81.8566 215.646C91.7969 218.495 97.8753 218.512 108.135 218.542L108.429 218.543C121.389 218.581 141.341 214.295 141.341 214.295L131.606 182.007C131.606 182.007 112.974 186.399 101.159 184.699C91.251 183.274 76.9608 176.247 76.9608 176.247L46.9685 176.928L45.2536 145.459C45.2536 145.459 38.6386 131.023 36.6994 121.147C34.4046 109.459 36.007 90.6544 36.007 90.6544Z" fill="#8728FF" fill-opacity="0.6"/>
<path fill-rule="evenodd" clip-rule="evenodd" d="M200.539 130.754C204.182 115.117 203.599 98.7925 198.85 83.4551L166.012 93.6219C168.957 103.133 169.318 113.257 167.059 122.954C164.8 132.652 160.001 141.573 153.156 148.804C146.311 156.035 137.665 161.315 128.106 164.101C118.547 166.888 108.419 167.081 98.7603 164.662L90.4065 198.008C105.981 201.909 122.313 201.597 137.727 197.104C149.377 193.708 160.186 188.015 169.536 180.404C170.223 188.779 177.333 195.268 185.844 195.075C194.679 194.874 201.678 187.55 201.477 178.716C201.282 170.128 194.356 163.275 185.855 163.083C192.813 153.414 197.818 142.433 200.539 130.754Z" fill="#6F35A5" fill-opacity="0.9"/>
<path fill-rule="evenodd" clip-rule="evenodd" d="M136.674 5.18247C118.019 0.883804 98.5562 1.62114 80.2797 7.31896L90.4302 39.8779C102.935 35.9793 116.252 35.4748 129.016 38.416C137.512 40.3737 145.56 43.8109 152.804 48.538C144.556 49.351 138.204 56.4008 138.395 64.8232C138.596 73.6575 145.92 80.6564 154.754 80.4558C163.422 80.259 170.323 73.2045 170.39 64.5945C176.224 71.9729 180.616 80.4243 183.297 89.5092C187.005 102.072 187.306 115.395 184.171 128.113L217.284 136.277C221.866 117.689 221.426 98.2176 216.007 79.8563C210.589 61.495 200.387 44.904 186.447 31.7827C172.507 18.6613 155.329 9.48113 136.674 5.18247Z" fill="#8728FF" fill-opacity="0.6"/>
<circle cx="76.2507" cy="147.255" r="16" transform="rotate(-1.30095 76.2507 147.255)" fill="#7B47AB"/>
</svg>
